<svg xmlns="http://www.w3.org/2000/svg" viewBox="0 0 1600 520">
<circle cx="518" cy="78" r="7.8" fill="#F2938E"/>
<circle cx="585" cy="30" r="4.6" fill="#F6C56B"/>
<circle cx="669" cy="125" r="9.8" fill="#F6C56B"/>
<polygon points="198,106 209,127 188,127" fill="#F6C56B" transform="rotate(143 198 116)"/>
<circle cx="1562" cy="24" r="5.0" fill="#BFE08C"/>
<circle cx="188" cy="160" r="8.0" fill="#BFE08C"/>
<circle cx="301" cy="51" r="8.3" fill="#F2938E"/>
<circle cx="794" cy="276" r="10.5" fill="#9FD6F2"/>
<rect x="579" y="129" width="10" height="10" rx="3" fill="#BFE08C" transform="rotate(52 579 129)"/>
<circle cx="840" cy="455" r="10.9" fill="#D9B8EE"/>
<circle cx="189" cy="217" r="7.4" fill="#9FD6F2"/>
<circle cx="63" cy="347" r="10.1" fill="#F6C56B"/>
<circle cx="502" cy="362" r="9.6" fill="#F6C56B"/>
<circle cx="110" cy="49" r="8.6" fill="#9FD6F2"/>
<polygon points="97,353 109,377 85,377" fill="#F6C56B" transform="rotate(102 97 365)"/>
<polygon points="617,339 626,357 608,357" fill="#F2938E" transform="rotate(220 617 348)"/>
<circle cx="790" cy="113" r="5.7" fill="#9FD6F2"/>
<circle cx="626" cy="453" r="6.8" fill="#F2938E"/>
<polygon points="445,63 453,80 436,80" fill="#D9B8EE" transform="rotate(150 445 71)"/>
<circle cx="574" cy="460" r="5.2" fill="#BFE08C"/>
<rect x="371" y="121" width="9" height="9" rx="3" fill="#D9B8EE" transform="rotate(25 371 121)"/>
<circle cx="233" cy="278" r="10.7" fill="#F6C56B"/>
<rect x="1105" y="268" width="14" height="14" rx="3" fill="#F6C56B" transform="rotate(41 1105 268)"/>
<circle cx="1394" cy="495" r="6.8" fill="#F6C56B"/>
<circle cx="166" cy="330" r="10.9" fill="#F2938E"/>
<circle cx="705" cy="57" r="4.0" fill="#F6C56B"/>
<circle cx="242" cy="53" r="4.5" fill="#9FD6F2"/>
<polygon points="333,185 343,206 322,206" fill="#9FD6F2" transform="rotate(171 333 196)"/>
<circle cx="185" cy="254" r="6.2" fill="#D9B8EE"/>
<circle cx="231" cy="390" r="8.8" fill="#9FD6F2"/>
<circle cx="826" cy="107" r="8.8" fill="#F6C56B"/>
<polygon points="1463,382 1475,406 1450,406" fill="#9FD6F2" transform="rotate(251 1463 394)"/>
<circle cx="418" cy="191" r="5.6" fill="#BFE08C"/>
<circle cx="867" cy="261" r="9.5" fill="#BFE08C"/>
<rect x="1213" y="101" width="14" height="14" rx="3" fill="#BFE08C" transform="rotate(20 1213 101)"/>
<polygon points="828,173 840,197 816,197" fill="#F2938E" transform="rotate(170 828 185)"/>
<circle cx="310" cy="315" r="10.6" fill="#9FD6F2"/>
<circle cx="1581" cy="497" r="4.7" fill="#9FD6F2"/>
<rect x="752" y="176" width="15" height="15" rx="3" fill="#D9B8EE" transform="rotate(76 752 176)"/>
<rect x="767" y="340" width="9" height="9" rx="3" fill="#F2938E" transform="rotate(35 767 340)"/>
<circle cx="1138" cy="104" r="8.5" fill="#BFE08C"/>
<circle cx="139" cy="492" r="9.2" fill="#D9B8EE"/>
<circle cx="136" cy="83" r="8.1" fill="#BFE08C"/>
<rect x="745" y="341" width="16" height="16" rx="3" fill="#F6C56B" transform="rotate(59 745 341)"/>
<circle cx="561" cy="285" r="9.6" fill="#BFE08C"/>
<circle cx="1162" cy="53" r="10.1" fill="#BFE08C"/>
<circle cx="1322" cy="110" r="7.5" fill="#9FD6F2"/>
<circle cx="1222" cy="170" r="4.9" fill="#F6C56B"/>
<rect x="1456" y="184" width="15" height="15" rx="3" fill="#D9B8EE" transform="rotate(47 1456 184)"/>
<circle cx="1323" cy="457" r="7.7" fill="#BFE08C"/>
<circle cx="30" cy="229" r="9.4" fill="#BFE08C"/>
<rect x="240" y="74" width="12" height="12" rx="3" fill="#F6C56B" transform="rotate(29 240 74)"/>
<polygon points="829,281 837,296 822,296" fill="#F2938E" transform="rotate(69 829 289)"/>
<circle cx="68" cy="51" r="9.3" fill="#D9B8EE"/>
<polygon points="1460,220 1471,241 1449,241" fill="#F6C56B" transform="rotate(72 1460 230)"/>
<circle cx="443" cy="264" r="5.7" fill="#D9B8EE"/>
<polygon points="837,443 849,468 825,468" fill="#9FD6F2" transform="rotate(73 837 456)"/>
<circle cx="716" cy="217" r="4.5" fill="#D9B8EE"/>
<rect x="385" y="38" width="15" height="15" rx="3" fill="#9FD6F2" transform="rotate(14 385 38)"/>
<circle cx="1146" cy="343" r="5.0" fill="#BFE08C"/>
<circle cx="748" cy="388" r="7.4" fill="#F2938E"/>
<rect x="1584" y="433" width="16" height="16" rx="3" fill="#BFE08C" transform="rotate(36 1584 433)"/>
<rect x="674" y="185" width="8" height="8" rx="3" fill="#F2938E" transform="rotate(50 674 185)"/>
<circle cx="705" cy="9" r="6.1" fill="#9FD6F2"/>
<polygon points="1537,51 1545,66 1530,66" fill="#BFE08C" transform="rotate(96 1537 59)"/>
<rect x="63" y="405" width="15" height="15" rx="3" fill="#9FD6F2" transform="rotate(76 63 405)"/>
<circle cx="1082" cy="492" r="10.4" fill="#D9B8EE"/>
<circle cx="913" cy="364" r="9.6" fill="#F2938E"/>
<polygon points="293,455 304,476 283,476" fill="#9FD6F2" transform="rotate(289 293 466)"/>
<circle cx="134" cy="445" r="4.9" fill="#F2938E"/>
<polygon points="18,508 27,526 10,526" fill="#D9B8EE" transform="rotate(47 18 517)"/>
<polygon points="843,115 852,133 834,133" fill="#F2938E" transform="rotate(65 843 124)"/>
<rect x="1492" y="327" width="10" height="10" rx="3" fill="#F6C56B" transform="rotate(45 1492 327)"/>
<polygon points="285,173 292,188 277,188" fill="#F2938E" transform="rotate(7 285 180)"/>
<circle cx="809" cy="509" r="10.5" fill="#F6C56B"/>
<rect x="170" y="426" width="12" height="12" rx="3" fill="#D9B8EE" transform="rotate(80 170 426)"/>
<polygon points="1552,151 1562,169 1543,169" fill="#BFE08C" transform="rotate(300 1552 160)"/>
<polygon points="1131,318 1144,344 1118,344" fill="#D9B8EE" transform="rotate(301 1131 331)"/>
<circle cx="23" cy="325" r="4.4" fill="#9FD6F2"/>
<rect x="1064" y="198" width="10" height="10" rx="3" fill="#F6C56B" transform="rotate(22 1064 198)"/>
</svg>
