<svg xmlns="http://www.w3.org/2000/svg" viewBox="0 0 1600 520" fill="none" stroke="#3F4248" stroke-width="2">
<polygon points="-64.0,-128.0 -8.6,-96.0 -8.6,-32.0 -64.0,0.0 -119.4,-32.0 -119.4,-96.0"/>
<polygon points="46.9,-128.0 102.3,-96.0 102.3,-32.0 46.9,0.0 -8.6,-32.0 -8.6,-96.0"/>
<polygon points="157.7,-128.0 213.1,-96.0 213.1,-32.0 157.7,0.0 102.3,-32.0 102.3,-96.0"/>
<polygon points="268.6,-128.0 324.0,-96.0 324.0,-32.0 268.6,0.0 213.1,-32.0 213.1,-96.0"/>
<polygon points="379.4,-128.0 434.8,-96.0 434.8,-32.0 379.4,0.0 324.0,-32.0 324.0,-96.0"/>
<polygon points="490.3,-128.0 545.7,-96.0 545.7,-32.0 490.3,0.0 434.8,-32.0 434.8,-96.0"/>
<polygon points="601.1,-128.0 656.5,-96.0 656.5,-32.0 601.1,0.0 545.7,-32.0 545.7,-96.0"/>
<polygon points="712.0,-128.0 767.4,-96.0 767.4,-32.0 712.0,0.0 656.5,-32.0 656.5,-96.0"/>
<polygon points="822.8,-128.0 878.2,-96.0 878.2,-32.0 822.8,0.0 767.4,-32.0 767.4,-96.0"/>
<polygon points="933.7,-128.0 989.1,-96.0 989.1,-32.0 933.7,0.0 878.2,-32.0 878.2,-96.0"/>
<polygon points="1044.5,-128.0 1099.9,-96.0 1099.9,-32.0 1044.5,0.0 989.1,-32.0 989.1,-96.0"/>
<polygon points="1155.4,-128.0 1210.8,-96.0 1210.8,-32.0 1155.4,0.0 1099.9,-32.0 1099.9,-96.0"/>
<polygon points="1266.2,-128.0 1321.6,-96.0 1321.6,-32.0 1266.2,0.0 1210.8,-32.0 1210.8,-96.0"/>
<polygon points="1377.1,-128.0 1432.5,-96.0 1432.5,-32.0 1377.1,0.0 1321.6,-32.0 1321.6,-96.0"/>
<polygon points="1487.9,-128.0 1543.3,-96.0 1543.3,-32.0 1487.9,0.0 1432.5,-32.0 1432.5,-96.0"/>
<polygon points="1598.8,-128.0 1654.2,-96.0 1654.2,-32.0 1598.8,0.0 1543.3,-32.0 1543.3,-96.0"/>
<polygon points="-8.6,-32.0 46.9,-0.0 46.9,64.0 -8.6,96.0 -64.0,64.0 -64.0,-0.0"/>
<polygon points="102.3,-32.0 157.7,-0.0 157.7,64.0 102.3,96.0 46.9,64.0 46.9,-0.0"/>
<polygon points="213.1,-32.0 268.6,-0.0 268.6,64.0 213.1,96.0 157.7,64.0 157.7,-0.0"/>
<polygon points="324.0,-32.0 379.4,-0.0 379.4,64.0 324.0,96.0 268.6,64.0 268.6,-0.0"/>
<polygon points="434.8,-32.0 490.3,-0.0 490.3,64.0 434.8,96.0 379.4,64.0 379.4,-0.0"/>
<polygon points="545.7,-32.0 601.1,-0.0 601.1,64.0 545.7,96.0 490.3,64.0 490.3,-0.0"/>
<polygon points="656.5,-32.0 712.0,-0.0 712.0,64.0 656.5,96.0 601.1,64.0 601.1,-0.0"/>
<polygon points="767.4,-32.0 822.8,-0.0 822.8,64.0 767.4,96.0 712.0,64.0 712.0,-0.0"/>
<polygon points="878.2,-32.0 933.7,-0.0 933.7,64.0 878.2,96.0 822.8,64.0 822.8,-0.0"/>
<polygon points="989.1,-32.0 1044.5,-0.0 1044.5,64.0 989.1,96.0 933.7,64.0 933.7,-0.0"/>
<polygon points="1099.9,-32.0 1155.4,-0.0 1155.4,64.0 1099.9,96.0 1044.5,64.0 1044.5,-0.0"/>
<polygon points="1210.8,-32.0 1266.2,-0.0 1266.2,64.0 1210.8,96.0 1155.4,64.0 1155.4,-0.0"/>
<polygon points="1321.6,-32.0 1377.1,-0.0 1377.1,64.0 1321.6,96.0 1266.2,64.0 1266.2,-0.0"/>
<polygon points="1432.5,-32.0 1487.9,-0.0 1487.9,64.0 1432.5,96.0 1377.1,64.0 1377.1,-0.0"/>
<polygon points="1543.3,-32.0 1598.8,-0.0 1598.8,64.0 1543.3,96.0 1487.9,64.0 1487.9,-0.0"/>
<polygon points="1654.2,-32.0 1709.6,-0.0 1709.6,64.0 1654.2,96.0 1598.8,64.0 1598.8,-0.0"/>
<polygon points="-64.0,64.0 -8.6,96.0 -8.6,160.0 -64.0,192.0 -119.4,160.0 -119.4,96.0"/>
<polygon points="46.9,64.0 102.3,96.0 102.3,160.0 46.9,192.0 -8.6,160.0 -8.6,96.0"/>
<polygon points="157.7,64.0 213.1,96.0 213.1,160.0 157.7,192.0 102.3,160.0 102.3,96.0"/>
<polygon points="268.6,64.0 324.0,96.0 324.0,160.0 268.6,192.0 213.1,160.0 213.1,96.0"/>
<polygon points="379.4,64.0 434.8,96.0 434.8,160.0 379.4,192.0 324.0,160.0 324.0,96.0"/>
<polygon points="490.3,64.0 545.7,96.0 545.7,160.0 490.3,192.0 434.8,160.0 434.8,96.0"/>
<polygon points="601.1,64.0 656.5,96.0 656.5,160.0 601.1,192.0 545.7,160.0 545.7,96.0"/>
<polygon points="712.0,64.0 767.4,96.0 767.4,160.0 712.0,192.0 656.5,160.0 656.5,96.0"/>
<polygon points="822.8,64.0 878.2,96.0 878.2,160.0 822.8,192.0 767.4,160.0 767.4,96.0"/>
<polygon points="933.7,64.0 989.1,96.0 989.1,160.0 933.7,192.0 878.2,160.0 878.2,96.0"/>
<polygon points="1044.5,64.0 1099.9,96.0 1099.9,160.0 1044.5,192.0 989.1,160.0 989.1,96.0"/>
<polygon points="1155.4,64.0 1210.8,96.0 1210.8,160.0 1155.4,192.0 1099.9,160.0 1099.9,96.0"/>
<polygon points="1266.2,64.0 1321.6,96.0 1321.6,160.0 1266.2,192.0 1210.8,160.0 1210.8,96.0"/>
<polygon points="1377.1,64.0 1432.5,96.0 1432.5,160.0 1377.1,192.0 1321.6,160.0 1321.6,96.0"/>
<polygon points="1487.9,64.0 1543.3,96.0 1543.3,160.0 1487.9,192.0 1432.5,160.0 1432.5,96.0"/>
<polygon points="1598.8,64.0 1654.2,96.0 1654.2,160.0 1598.8,192.0 1543.3,160.0 1543.3,96.0"/>
<polygon points="-8.6,160.0 46.9,192.0 46.9,256.0 -8.6,288.0 -64.0,256.0 -64.0,192.0"/>
<polygon points="102.3,160.0 157.7,192.0 157.7,256.0 102.3,288.0 46.9,256.0 46.9,192.0"/>
<polygon points="213.1,160.0 268.6,192.0 268.6,256.0 213.1,288.0 157.7,256.0 157.7,192.0"/>
<polygon points="324.0,160.0 379.4,192.0 379.4,256.0 324.0,288.0 268.6,256.0 268.6,192.0"/>
<polygon points="434.8,160.0 490.3,192.0 490.3,256.0 434.8,288.0 379.4,256.0 379.4,192.0"/>
<polygon points="545.7,160.0 601.1,192.0 601.1,256.0 545.7,288.0 490.3,256.0 490.3,192.0"/>
<polygon points="656.5,160.0 712.0,192.0 712.0,256.0 656.5,288.0 601.1,256.0 601.1,192.0"/>
<polygon points="767.4,160.0 822.8,192.0 822.8,256.0 767.4,288.0 712.0,256.0 712.0,192.0"/>
<polygon points="878.2,160.0 933.7,192.0 933.7,256.0 878.2,288.0 822.8,256.0 822.8,192.0"/>
<polygon points="989.1,160.0 1044.5,192.0 1044.5,256.0 989.1,288.0 933.7,256.0 933.7,192.0"/>
<polygon points="1099.9,160.0 1155.4,192.0 1155.4,256.0 1099.9,288.0 1044.5,256.0 1044.5,192.0"/>
<polygon points="1210.8,160.0 1266.2,192.0 1266.2,256.0 1210.8,288.0 1155.4,256.0 1155.4,192.0"/>
<polygon points="1321.6,160.0 1377.1,192.0 1377.1,256.0 1321.6,288.0 1266.2,256.0 1266.2,192.0"/>
<polygon points="1432.5,160.0 1487.9,192.0 1487.9,256.0 1432.5,288.0 1377.1,256.0 1377.1,192.0"/>
<polygon points="1543.3,160.0 1598.8,192.0 1598.8,256.0 1543.3,288.0 1487.9,256.0 1487.9,192.0"/>
<polygon points="1654.2,160.0 1709.6,192.0 1709.6,256.0 1654.2,288.0 1598.8,256.0 1598.8,192.0"/>
<polygon points="-64.0,256.0 -8.6,288.0 -8.6,352.0 -64.0,384.0 -119.4,352.0 -119.4,288.0"/>
<polygon points="46.9,256.0 102.3,288.0 102.3,352.0 46.9,384.0 -8.6,352.0 -8.6,288.0"/>
<polygon points="157.7,256.0 213.1,288.0 213.1,352.0 157.7,384.0 102.3,352.0 102.3,288.0"/>
<polygon points="268.6,256.0 324.0,288.0 324.0,352.0 268.6,384.0 213.1,352.0 213.1,288.0"/>
<polygon points="379.4,256.0 434.8,288.0 434.8,352.0 379.4,384.0 324.0,352.0 324.0,288.0"/>
<polygon points="490.3,256.0 545.7,288.0 545.7,352.0 490.3,384.0 434.8,352.0 434.8,288.0"/>
<polygon points="601.1,256.0 656.5,288.0 656.5,352.0 601.1,384.0 545.7,352.0 545.7,288.0"/>
<polygon points="712.0,256.0 767.4,288.0 767.4,352.0 712.0,384.0 656.5,352.0 656.5,288.0"/>
<polygon points="822.8,256.0 878.2,288.0 878.2,352.0 822.8,384.0 767.4,352.0 767.4,288.0"/>
<polygon points="933.7,256.0 989.1,288.0 989.1,352.0 933.7,384.0 878.2,352.0 878.2,288.0"/>
<polygon points="1044.5,256.0 1099.9,288.0 1099.9,352.0 1044.5,384.0 989.1,352.0 989.1,288.0"/>
<polygon points="1155.4,256.0 1210.8,288.0 1210.8,352.0 1155.4,384.0 1099.9,352.0 1099.9,288.0"/>
<polygon points="1266.2,256.0 1321.6,288.0 1321.6,352.0 1266.2,384.0 1210.8,352.0 1210.8,288.0"/>
<polygon points="1377.1,256.0 1432.5,288.0 1432.5,352.0 1377.1,384.0 1321.6,352.0 1321.6,288.0"/>
<polygon points="1487.9,256.0 1543.3,288.0 1543.3,352.0 1487.9,384.0 1432.5,352.0 1432.5,288.0"/>
<polygon points="1598.8,256.0 1654.2,288.0 1654.2,352.0 1598.8,384.0 1543.3,352.0 1543.3,288.0"/>
<polygon points="-8.6,352.0 46.9,384.0 46.9,448.0 -8.6,480.0 -64.0,448.0 -64.0,384.0"/>
<polygon points="102.3,352.0 157.7,384.0 157.7,448.0 102.3,480.0 46.9,448.0 46.9,384.0"/>
<polygon points="213.1,352.0 268.6,384.0 268.6,448.0 213.1,480.0 157.7,448.0 157.7,384.0"/>
<polygon points="324.0,352.0 379.4,384.0 379.4,448.0 324.0,480.0 268.6,448.0 268.6,384.0"/>
<polygon points="434.8,352.0 490.3,384.0 490.3,448.0 434.8,480.0 379.4,448.0 379.4,384.0"/>
<polygon points="545.7,352.0 601.1,384.0 601.1,448.0 545.7,480.0 490.3,448.0 490.3,384.0"/>
<polygon points="656.5,352.0 712.0,384.0 712.0,448.0 656.5,480.0 601.1,448.0 601.1,384.0"/>
<polygon points="767.4,352.0 822.8,384.0 822.8,448.0 767.4,480.0 712.0,448.0 712.0,384.0"/>
<polygon points="878.2,352.0 933.7,384.0 933.7,448.0 878.2,480.0 822.8,448.0 822.8,384.0"/>
<polygon points="989.1,352.0 1044.5,384.0 1044.5,448.0 989.1,480.0 933.7,448.0 933.7,384.0"/>
<polygon points="1099.9,352.0 1155.4,384.0 1155.4,448.0 1099.9,480.0 1044.5,448.0 1044.5,384.0"/>
<polygon points="1210.8,352.0 1266.2,384.0 1266.2,448.0 1210.8,480.0 1155.4,448.0 1155.4,384.0"/>
<polygon points="1321.6,352.0 1377.1,384.0 1377.1,448.0 1321.6,480.0 1266.2,448.0 1266.2,384.0"/>
<polygon points="1432.5,352.0 1487.9,384.0 1487.9,448.0 1432.5,480.0 1377.1,448.0 1377.1,384.0"/>
<polygon points="1543.3,352.0 1598.8,384.0 1598.8,448.0 1543.3,480.0 1487.9,448.0 1487.9,384.0"/>
<polygon points="1654.2,352.0 1709.6,384.0 1709.6,448.0 1654.2,480.0 1598.8,448.0 1598.8,384.0"/>
<polygon points="-64.0,448.0 -8.6,480.0 -8.6,544.0 -64.0,576.0 -119.4,544.0 -119.4,480.0"/>
<polygon points="46.9,448.0 102.3,480.0 102.3,544.0 46.9,576.0 -8.6,544.0 -8.6,480.0"/>
<polygon points="157.7,448.0 213.1,480.0 213.1,544.0 157.7,576.0 102.3,544.0 102.3,480.0"/>
<polygon points="268.6,448.0 324.0,480.0 324.0,544.0 268.6,576.0 213.1,544.0 213.1,480.0"/>
<polygon points="379.4,448.0 434.8,480.0 434.8,544.0 379.4,576.0 324.0,544.0 324.0,480.0"/>
<polygon points="490.3,448.0 545.7,480.0 545.7,544.0 490.3,576.0 434.8,544.0 434.8,480.0"/>
<polygon points="601.1,448.0 656.5,480.0 656.5,544.0 601.1,576.0 545.7,544.0 545.7,480.0"/>
<polygon points="712.0,448.0 767.4,480.0 767.4,544.0 712.0,576.0 656.5,544.0 656.5,480.0"/>
<polygon points="822.8,448.0 878.2,480.0 878.2,544.0 822.8,576.0 767.4,544.0 767.4,480.0"/>
<polygon points="933.7,448.0 989.1,480.0 989.1,544.0 933.7,576.0 878.2,544.0 878.2,480.0"/>
<polygon points="1044.5,448.0 1099.9,480.0 1099.9,544.0 1044.5,576.0 989.1,544.0 989.1,480.0"/>
<polygon points="1155.4,448.0 1210.8,480.0 1210.8,544.0 1155.4,576.0 1099.9,544.0 1099.9,480.0"/>
<polygon points="1266.2,448.0 1321.6,480.0 1321.6,544.0 1266.2,576.0 1210.8,544.0 1210.8,480.0"/>
<polygon points="1377.1,448.0 1432.5,480.0 1432.5,544.0 1377.1,576.0 1321.6,544.0 1321.6,480.0"/>
<polygon points="1487.9,448.0 1543.3,480.0 1543.3,544.0 1487.9,576.0 1432.5,544.0 1432.5,480.0"/>
<polygon points="1598.8,448.0 1654.2,480.0 1654.2,544.0 1598.8,576.0 1543.3,544.0 1543.3,480.0"/>
</svg>
